<svg width="176" height="60" viewBox="0 0 176 60" fill="none" xmlns="http://www.w3.org/2000/svg">
<path d="M0 52.9402C0 52.197 0.16266 51.5468 0.487981 50.9894C0.82316 50.4232 1.28157 49.9897 1.8632 49.6889C2.45469 49.3793 3.12012 49.2245 3.85949 49.2245C4.62843 49.2245 5.28893 49.3837 5.84099 49.7022C6.4029 50.0207 6.80709 50.4277 7.05355 50.9231V49.3306H8.08866V56.5763H7.05355V54.9705C6.79723 55.466 6.38812 55.8773 5.8262 56.2047C5.27414 56.5232 4.61364 56.6824 3.8447 56.6824C3.11519 56.6824 2.45469 56.5276 1.8632 56.218C1.28157 55.9083 0.82316 55.4704 0.487981 54.9042C0.16266 54.338 0 53.6833 0 52.9402ZM7.05355 52.9535C7.05355 52.3696 6.92046 51.8564 6.65429 51.4141C6.38812 50.9717 6.02336 50.6311 5.56003 50.3923C5.10655 50.1534 4.60378 50.034 4.05172 50.034C3.47995 50.034 2.96732 50.149 2.51384 50.379C2.06036 50.609 1.70054 50.9452 1.43437 51.3876C1.17806 51.821 1.0499 52.3386 1.0499 52.9402C1.0499 53.5329 1.17806 54.0549 1.43437 54.5061C1.70054 54.9484 2.06036 55.289 2.51384 55.5279C2.96732 55.7579 3.47995 55.8729 4.05172 55.8729C4.60378 55.8729 5.10655 55.7535 5.56003 55.5146C6.02336 55.2758 6.38812 54.9352 6.65429 54.4928C6.92046 54.0505 7.05355 53.5373 7.05355 52.9535Z" fill="#FC3D21"/>
<path d="M12.0488 56.6824C11.1221 56.6824 10.363 56.4922 9.77152 56.1118C9.18989 55.7225 8.86457 55.1961 8.79556 54.5326H9.86025C9.90954 54.9396 10.1215 55.2713 10.4961 55.5279C10.8806 55.7756 11.3932 55.8995 12.034 55.8995C12.5959 55.8995 13.0346 55.78 13.35 55.5412C13.6754 55.3023 13.838 55.0059 13.838 54.6521C13.838 54.4043 13.7493 54.2009 13.5719 54.0416C13.3944 53.8824 13.1677 53.7585 12.8916 53.67C12.6255 53.5727 12.2607 53.471 11.7974 53.3648C11.196 53.2233 10.7081 53.0817 10.3334 52.9402C9.95883 52.7986 9.63844 52.5907 9.37226 52.3165C9.11595 52.0334 8.98779 51.6574 8.98779 51.1885C8.98779 50.8346 9.10609 50.5073 9.34269 50.2065C9.57929 49.9057 9.91447 49.6668 10.3482 49.4899C10.782 49.313 11.2749 49.2245 11.827 49.2245C12.6945 49.2245 13.3944 49.4235 13.9268 49.8217C14.4591 50.2109 14.745 50.7506 14.7844 51.4406H13.7493C13.7197 51.016 13.5324 50.6754 13.1874 50.4188C12.8522 50.1534 12.3889 50.0207 11.7974 50.0207C11.2749 50.0207 10.851 50.1313 10.5257 50.3525C10.2004 50.5736 10.0377 50.8479 10.0377 51.1752C10.0377 51.4583 10.1313 51.6928 10.3187 51.8786C10.5158 52.0555 10.7573 52.197 11.0432 52.3032C11.3291 52.4005 11.7136 52.5111 12.1966 52.635C12.7783 52.7765 13.2416 52.9136 13.5866 53.0463C13.9317 53.179 14.2274 53.3737 14.4739 53.6302C14.7203 53.8868 14.8485 54.2274 14.8584 54.6521C14.8584 55.0413 14.7401 55.3908 14.5035 55.7004C14.2669 56.0012 13.9366 56.2401 13.5127 56.417C13.0888 56.5939 12.6008 56.6824 12.0488 56.6824Z" fill="#FC3D21"/>
<path d="M16.9695 50.1136V54.6122C16.9695 55.0546 17.0631 55.3598 17.2504 55.5279C17.4377 55.696 17.768 55.78 18.2412 55.78H19.1876V56.5763H18.0785C17.349 56.5763 16.8068 56.4259 16.4519 56.1251C16.097 55.8154 15.9196 55.3111 15.9196 54.6122V50.1136H14.7957V49.3306H15.9196V47.5126H16.9695V49.3306H19.1876V50.1136H16.9695Z" fill="#FC3D21"/>
<path d="M20.7468 50.6179C20.9736 50.1667 21.3186 49.8172 21.7819 49.5695C22.2551 49.3218 22.8318 49.1979 23.512 49.1979V50.1667H23.2311C22.4819 50.1667 21.8805 50.348 21.427 50.7108C20.9736 51.0735 20.7468 51.6795 20.7468 52.5288V56.5763H19.7117V49.3306H20.7468V50.6179Z" fill="#FC3D21"/>
<path d="M27.4204 56.6824C26.6613 56.6824 25.9762 56.532 25.365 56.2312C24.7636 55.9216 24.2855 55.4881 23.9306 54.9307C23.5856 54.3645 23.413 53.7054 23.413 52.9535C23.413 52.2015 23.5905 51.5468 23.9454 50.9894C24.3003 50.4232 24.7833 49.9897 25.3945 49.6889C26.0057 49.3793 26.6909 49.2245 27.45 49.2245C28.2091 49.2245 28.8942 49.3793 29.5054 49.6889C30.1265 49.9897 30.6095 50.4232 30.9546 50.9894C31.3095 51.5468 31.4869 52.2015 31.4869 52.9535C31.4869 53.6966 31.3095 54.3513 30.9546 54.9175C30.5997 55.4837 30.1117 55.9216 29.4906 56.2312C28.8696 56.532 28.1795 56.6824 27.4204 56.6824ZM27.4204 55.8729C27.9527 55.8729 28.4457 55.7668 28.8991 55.5544C29.3526 55.3333 29.7174 55.0059 29.9934 54.5724C30.2793 54.1301 30.4222 53.5904 30.4222 52.9535C30.4222 52.3165 30.2842 51.7812 30.0082 51.3477C29.7321 50.9054 29.3674 50.5781 28.9139 50.3657C28.4604 50.1446 27.9675 50.034 27.4352 50.034C26.9028 50.034 26.4099 50.1446 25.9565 50.3657C25.503 50.5781 25.1382 50.9054 24.8622 51.3477C24.596 51.7812 24.4629 52.3165 24.4629 52.9535C24.4629 53.5904 24.596 54.1301 24.8622 54.5724C25.1382 55.0059 25.4981 55.3333 25.9417 55.5544C26.3951 55.7668 26.8881 55.8729 27.4204 55.8729Z" fill="#FC3D21"/>
<path d="M35.9764 49.1979C36.9425 49.1979 37.7311 49.4678 38.3423 50.0074C38.9535 50.5382 39.2591 51.3124 39.2591 52.3297V56.5763H38.2388V52.4359C38.2388 51.6485 38.017 51.0469 37.5734 50.6311C37.1396 50.2153 36.5432 50.0074 35.7841 50.0074C35.0053 50.0074 34.3843 50.2286 33.9209 50.671C33.4576 51.1133 33.2259 51.7635 33.2259 52.6217V56.5763H32.1908V49.3306H33.2259V50.5648C33.4822 50.1224 33.8519 49.7863 34.335 49.5562C34.818 49.3174 35.3652 49.1979 35.9764 49.1979Z" fill="#FC3D21"/>
<path d="M43.8996 56.6824C43.1405 56.6824 42.4554 56.532 41.8441 56.2312C41.2428 55.9216 40.7647 55.4881 40.4098 54.9307C40.0647 54.3645 39.8922 53.7054 39.8922 52.9535C39.8922 52.2015 40.0697 51.5468 40.4246 50.9894C40.7795 50.4232 41.2625 49.9897 41.8737 49.6889C42.4849 49.3793 43.1701 49.2245 43.9292 49.2245C44.6882 49.2245 45.3734 49.3793 45.9846 49.6889C46.6057 49.9897 47.0887 50.4232 47.4337 50.9894C47.7886 51.5468 47.9661 52.2015 47.9661 52.9535C47.9661 53.6966 47.7886 54.3513 47.4337 54.9175C47.0789 55.4837 46.5909 55.9216 45.9698 56.2312C45.3487 56.532 44.6587 56.6824 43.8996 56.6824ZM43.8996 55.8729C44.4319 55.8729 44.9248 55.7668 45.3783 55.5544C45.8318 55.3333 46.1965 55.0059 46.4726 54.5724C46.7585 54.1301 46.9014 53.5904 46.9014 52.9535C46.9014 52.3165 46.7634 51.7812 46.4874 51.3477C46.2113 50.9054 45.8466 50.5781 45.3931 50.3657C44.9396 50.1446 44.4467 50.034 43.9144 50.034C43.382 50.034 42.8891 50.1446 42.4356 50.3657C41.9822 50.5781 41.6174 50.9054 41.3414 51.3477C41.0752 51.7812 40.9421 52.3165 40.9421 52.9535C40.9421 53.5904 41.0752 54.1301 41.3414 54.5724C41.6174 55.0059 41.9772 55.3333 42.4209 55.5544C42.8743 55.7668 43.3672 55.8729 43.8996 55.8729Z" fill="#FC3D21"/>
<path d="M58.2817 49.1979C59.2281 49.1979 59.9971 49.4678 60.5886 50.0074C61.1899 50.5382 61.4906 51.3124 61.4906 52.3297V56.5763H60.4703V52.4359C60.4703 51.6485 60.2583 51.0469 59.8344 50.6311C59.4105 50.2153 58.8338 50.0074 58.1043 50.0074C57.3452 50.0074 56.7389 50.233 56.2855 50.6842C55.832 51.1354 55.6052 51.7901 55.6052 52.6482V56.5763H54.5849V52.4359C54.5849 51.6485 54.373 51.0469 53.9491 50.6311C53.5252 50.2153 52.9435 50.0074 52.2042 50.0074C51.4451 50.0074 50.8388 50.233 50.3853 50.6842C49.9318 51.1354 49.7051 51.7901 49.7051 52.6482V56.5763H48.67V49.3306H49.7051V50.5781C49.9614 50.1269 50.3262 49.7863 50.7994 49.5562C51.2726 49.3174 51.8 49.1979 52.3816 49.1979C53.0815 49.1979 53.6927 49.3483 54.2152 49.6491C54.7476 49.9499 55.132 50.3923 55.3686 50.9762C55.5855 50.4011 55.9552 49.9632 56.4777 49.6624C57.01 49.3528 57.6114 49.1979 58.2817 49.1979Z" fill="#FC3D21"/>
<path d="M69.2607 49.3306L64.4696 59.9867H63.3902L64.9576 56.5364L61.6453 49.3306H62.7839L65.5343 55.5146L68.1961 49.3306H69.2607Z" fill="#FC3D21"/>
<path d="M73.3766 50.9231C73.6329 50.4365 74.0371 50.034 74.5891 49.7155C75.1511 49.3882 75.8165 49.2245 76.5854 49.2245C77.3149 49.2245 77.9705 49.3793 78.5521 49.6889C79.1436 49.9897 79.602 50.4232 79.9274 50.9894C80.2625 51.5468 80.4301 52.197 80.4301 52.9402C80.4301 53.6833 80.2625 54.338 79.9274 54.9042C79.602 55.4704 79.1436 55.9083 78.5521 56.218C77.9705 56.5276 77.3149 56.6824 76.5854 56.6824C75.8263 56.6824 75.1658 56.5232 74.6039 56.2047C74.042 55.8773 73.6329 55.4704 73.3766 54.9838V60H72.3563V49.3306H73.3766V50.9231ZM79.3802 52.9402C79.3802 52.3386 79.2471 51.821 78.981 51.3876C78.7247 50.9452 78.3698 50.609 77.9163 50.379C77.4628 50.149 76.9502 50.034 76.3784 50.034C75.8263 50.034 75.3186 50.1534 74.8553 50.3923C74.4018 50.6311 74.042 50.9717 73.7758 51.4141C73.5097 51.8564 73.3766 52.3696 73.3766 52.9535C73.3766 53.5373 73.5097 54.0505 73.7758 54.4928C74.042 54.9352 74.4018 55.2758 74.8553 55.5146C75.3186 55.7535 75.8263 55.8729 76.3784 55.8729C76.9502 55.8729 77.4628 55.7579 77.9163 55.5279C78.3698 55.289 78.7247 54.9484 78.981 54.5061C79.2471 54.0549 79.3802 53.5329 79.3802 52.9402Z" fill="#FC3D21"/>
<path d="M84.9965 49.1979C85.6077 49.1979 86.1548 49.313 86.6379 49.543C87.1308 49.773 87.5153 50.1269 87.7913 50.6046C88.0772 51.0735 88.2201 51.6485 88.2201 52.3297V56.5763H87.1998V52.4359C87.1998 51.6485 86.978 51.0469 86.5344 50.6311C86.1006 50.2153 85.5042 50.0074 84.7451 50.0074C83.9663 50.0074 83.3453 50.2286 82.8819 50.671C82.4186 51.1133 82.1869 51.7635 82.1869 52.6217V56.5763H81.1518V46.7562H82.1869V50.5648C82.4432 50.1313 82.8179 49.7951 83.3108 49.5562C83.8135 49.3174 84.3754 49.1979 84.9965 49.1979Z" fill="#FC3D21"/>
<path d="M92.8606 56.6824C92.1015 56.6824 91.4164 56.532 90.8052 56.2312C90.2038 55.9216 89.7257 55.4881 89.3708 54.9307C89.0257 54.3645 88.8532 53.7054 88.8532 52.9535C88.8532 52.2015 89.0307 51.5468 89.3856 50.9894C89.7405 50.4232 90.2235 49.9897 90.8347 49.6889C91.4459 49.3793 92.1311 49.2245 92.8902 49.2245C93.6492 49.2245 94.3344 49.3793 94.9456 49.6889C95.5667 49.9897 96.0497 50.4232 96.3948 50.9894C96.7497 51.5468 96.9271 52.2015 96.9271 52.9535C96.9271 53.6966 96.7497 54.3513 96.3948 54.9175C96.0399 55.4837 95.5519 55.9216 94.9308 56.2312C94.3097 56.532 93.6197 56.6824 92.8606 56.6824ZM92.8606 55.8729C93.3929 55.8729 93.8858 55.7668 94.3393 55.5544C94.7928 55.3333 95.1576 55.0059 95.4336 54.5724C95.7195 54.1301 95.8624 53.5904 95.8624 52.9535C95.8624 52.3165 95.7244 51.7812 95.4484 51.3477C95.1723 50.9054 94.8076 50.5781 94.3541 50.3657C93.9006 50.1446 93.4077 50.034 92.8754 50.034C92.343 50.034 91.8501 50.1446 91.3966 50.3657C90.9432 50.5781 90.5784 50.9054 90.3024 51.3477C90.0362 51.7812 89.9031 52.3165 89.9031 52.9535C89.9031 53.5904 90.0362 54.1301 90.3024 54.5724C90.5784 55.0059 90.9382 55.3333 91.3819 55.5544C91.8353 55.7668 92.3282 55.8729 92.8606 55.8729Z" fill="#FC3D21"/>
<path d="M98.9766 50.1136V54.6122C98.9766 55.0546 99.0703 55.3598 99.2576 55.5279C99.4449 55.696 99.7752 55.78 100.248 55.78H101.195V56.5763H100.086C99.3562 56.5763 98.814 56.4259 98.4591 56.1251C98.1042 55.8154 97.9267 55.3111 97.9267 54.6122V50.1136H96.8029V49.3306H97.9267V47.5126H98.9766V49.3306H101.195V50.1136H98.9766Z" fill="#FC3D21"/>
<path d="M105.253 56.6824C104.494 56.6824 103.809 56.532 103.198 56.2312C102.596 55.9216 102.118 55.4881 101.763 54.9307C101.418 54.3645 101.246 53.7054 101.246 52.9535C101.246 52.2015 101.423 51.5468 101.778 50.9894C102.133 50.4232 102.616 49.9897 103.227 49.6889C103.838 49.3793 104.524 49.2245 105.283 49.2245C106.042 49.2245 106.727 49.3793 107.338 49.6889C107.959 49.9897 108.442 50.4232 108.787 50.9894C109.142 51.5468 109.32 52.2015 109.32 52.9535C109.32 53.6966 109.142 54.3513 108.787 54.9175C108.432 55.4837 107.944 55.9216 107.323 56.2312C106.702 56.532 106.012 56.6824 105.253 56.6824ZM105.253 55.8729C105.785 55.8729 106.278 55.7668 106.732 55.5544C107.185 55.3333 107.55 55.0059 107.826 54.5724C108.112 54.1301 108.255 53.5904 108.255 52.9535C108.255 52.3165 108.117 51.7812 107.841 51.3477C107.565 50.9054 107.2 50.5781 106.747 50.3657C106.293 50.1446 105.8 50.034 105.268 50.034C104.735 50.034 104.243 50.1446 103.789 50.3657C103.336 50.5781 102.971 50.9054 102.695 51.3477C102.429 51.7812 102.296 52.3165 102.296 52.9535C102.296 53.5904 102.429 54.1301 102.695 54.5724C102.971 55.0059 103.331 55.3333 103.774 55.5544C104.228 55.7668 104.721 55.8729 105.253 55.8729Z" fill="#FC3D21"/>
<path d="M116.432 56.6824C115.673 56.6824 114.988 56.532 114.377 56.2312C113.776 55.9216 113.298 55.4881 112.943 54.9307C112.598 54.3645 112.425 53.7054 112.425 52.9535C112.425 52.2015 112.603 51.5468 112.957 50.9894C113.312 50.4232 113.795 49.9897 114.407 49.6889C115.018 49.3793 115.703 49.2245 116.462 49.2245C117.221 49.2245 117.906 49.3793 118.517 49.6889C119.139 49.9897 119.622 50.4232 119.967 50.9894C120.322 51.5468 120.499 52.2015 120.499 52.9535C120.499 53.6966 120.322 54.3513 119.967 54.9175C119.612 55.4837 119.124 55.9216 118.503 56.2312C117.882 56.532 117.192 56.6824 116.432 56.6824ZM116.432 55.8729C116.965 55.8729 117.458 55.7668 117.911 55.5544C118.365 55.3333 118.729 55.0059 119.005 54.5724C119.291 54.1301 119.434 53.5904 119.434 52.9535C119.434 52.3165 119.296 51.7812 119.02 51.3477C118.744 50.9054 118.379 50.5781 117.926 50.3657C117.473 50.1446 116.98 50.034 116.447 50.034C115.915 50.034 115.422 50.1446 114.969 50.3657C114.515 50.5781 114.15 50.9054 113.874 51.3477C113.608 51.7812 113.475 52.3165 113.475 52.9535C113.475 53.5904 113.608 54.1301 113.874 54.5724C114.15 55.0059 114.51 55.3333 114.954 55.5544C115.407 55.7668 115.9 55.8729 116.432 55.8729Z" fill="#FC3D21"/>
<path d="M124.382 50.1136H122.504V56.5763H121.469V50.1136H120.345V49.3306H121.469V48.8264C121.469 48.039 121.691 47.4595 122.134 47.088C122.588 46.7164 123.317 46.5306 124.323 46.5306V47.3268C123.653 47.3268 123.179 47.4418 122.903 47.6719C122.637 47.9019 122.504 48.2867 122.504 48.8264V49.3306H124.382V50.1136Z" fill="#FC3D21"/>
<path d="M129.049 50.1136V54.6122C129.049 55.0546 129.143 55.3598 129.33 55.5279C129.517 55.696 129.848 55.78 130.321 55.78H131.267V56.5763H130.158C129.429 56.5763 128.887 56.4259 128.532 56.1251C128.177 55.8154 127.999 55.3111 127.999 54.6122V50.1136H126.875V49.3306H127.999V47.5126H129.049V49.3306H131.267V50.1136H129.049Z" fill="#FC3D21"/>
<path d="M135.636 49.1979C136.247 49.1979 136.794 49.313 137.277 49.543C137.77 49.773 138.155 50.1269 138.431 50.6046C138.717 51.0735 138.86 51.6485 138.86 52.3297V56.5763H137.839V52.4359C137.839 51.6485 137.618 51.0469 137.174 50.6311C136.74 50.2153 136.144 50.0074 135.385 50.0074C134.606 50.0074 133.985 50.2286 133.522 50.671C133.058 51.1133 132.827 51.7635 132.827 52.6217V56.5763H131.791V46.7562H132.827V50.5648C133.083 50.1313 133.457 49.7951 133.95 49.5562C134.453 49.3174 135.015 49.1979 135.636 49.1979Z" fill="#FC3D21"/>
<path d="M147.271 52.5819C147.271 52.9004 147.261 53.1437 147.241 53.3117H140.543C140.572 53.8603 140.72 54.3291 140.986 54.7184C141.253 55.1077 141.602 55.404 142.036 55.6075C142.47 55.8021 142.943 55.8995 143.456 55.8995C144.126 55.8995 144.688 55.7535 145.142 55.4615C145.605 55.1696 145.911 54.7759 146.058 54.2805H147.153C146.955 54.9882 146.532 55.5677 145.881 56.0189C145.24 56.4612 144.432 56.6824 143.456 56.6824C142.697 56.6824 142.017 56.532 141.415 56.2312C140.814 55.9216 140.341 55.4881 139.996 54.9307C139.66 54.3645 139.493 53.7054 139.493 52.9535C139.493 52.2015 139.66 51.5424 139.996 50.9762C140.331 50.41 140.799 49.9765 141.4 49.6757C142.002 49.3749 142.687 49.2245 143.456 49.2245C144.225 49.2245 144.895 49.3749 145.467 49.6757C146.049 49.9765 146.492 50.3834 146.798 50.8965C147.113 51.4008 147.271 51.9626 147.271 52.5819ZM146.221 52.5553C146.231 52.0157 146.108 51.5556 145.851 51.1752C145.605 50.7948 145.265 50.5073 144.831 50.3127C144.397 50.118 143.924 50.0207 143.411 50.0207C142.643 50.0207 141.987 50.2419 141.445 50.6842C140.903 51.1266 140.602 51.7503 140.543 52.5553H146.221Z" fill="#FC3D21"/>
<path d="M150.383 52.9402C150.383 52.197 150.551 51.5468 150.886 50.9894C151.221 50.4232 151.68 49.9897 152.261 49.6889C152.853 49.3793 153.518 49.2245 154.258 49.2245C154.967 49.2245 155.608 49.3793 156.18 49.6889C156.752 49.9986 157.171 50.4011 157.437 50.8965V46.7562H158.472V56.5763H157.437V54.9573C157.191 55.4615 156.786 55.8773 156.224 56.2047C155.662 56.5232 155.002 56.6824 154.243 56.6824C153.504 56.6824 152.838 56.5276 152.247 56.218C151.665 55.9083 151.207 55.4704 150.871 54.9042C150.546 54.338 150.383 53.6833 150.383 52.9402ZM157.437 52.9535C157.437 52.3696 157.304 51.8564 157.038 51.4141C156.772 50.9717 156.407 50.6311 155.943 50.3923C155.49 50.1534 154.987 50.034 154.435 50.034C153.863 50.034 153.351 50.149 152.897 50.379C152.444 50.609 152.084 50.9452 151.818 51.3876C151.561 51.821 151.433 52.3386 151.433 52.9402C151.433 53.5329 151.561 54.0549 151.818 54.5061C152.084 54.9484 152.444 55.289 152.897 55.5279C153.351 55.7579 153.863 55.8729 154.435 55.8729C154.987 55.8729 155.49 55.7535 155.943 55.5146C156.407 55.2758 156.772 54.9352 157.038 54.4928C157.304 54.0505 157.437 53.5373 157.437 52.9535Z" fill="#FC3D21"/>
<path d="M159.179 52.9402C159.179 52.197 159.342 51.5468 159.667 50.9894C160.002 50.4232 160.461 49.9897 161.042 49.6889C161.634 49.3793 162.299 49.2245 163.038 49.2245C163.807 49.2245 164.468 49.3837 165.02 49.7022C165.582 50.0207 165.986 50.4277 166.233 50.9231V49.3306H167.268V56.5763H166.233V54.9705C165.976 55.466 165.567 55.8773 165.005 56.2047C164.453 56.5232 163.793 56.6824 163.024 56.6824C162.294 56.6824 161.634 56.5276 161.042 56.218C160.461 55.9083 160.002 55.4704 159.667 54.9042C159.342 54.338 159.179 53.6833 159.179 52.9402ZM166.233 52.9535C166.233 52.3696 166.099 51.8564 165.833 51.4141C165.567 50.9717 165.202 50.6311 164.739 50.3923C164.286 50.1534 163.783 50.034 163.231 50.034C162.659 50.034 162.146 50.149 161.693 50.379C161.239 50.609 160.88 50.9452 160.613 51.3876C160.357 51.821 160.229 52.3386 160.229 52.9402C160.229 53.5329 160.357 54.0549 160.613 54.5061C160.88 54.9484 161.239 55.289 161.693 55.5279C162.146 55.7579 162.659 55.8729 163.231 55.8729C163.783 55.8729 164.286 55.7535 164.739 55.5146C165.202 55.2758 165.567 54.9352 165.833 54.4928C166.099 54.0505 166.233 53.5373 166.233 52.9535Z" fill="#FC3D21"/>
<path d="M175.102 49.3306L170.311 59.9867H169.231L170.799 56.5364L167.487 49.3306H168.625L171.376 55.5146L174.037 49.3306H175.102Z" fill="#FC3D21"/>
<path d="M-7.62939e-06 42.28L14.5624 1.22449L27.0779 1.22449L41.6403 42.28H30.9963L20.8201 11.2837L10.5855 42.28H-7.62939e-06Z" fill="#0B3D91"/>
<path d="M81.2532 14.5169C81.2532 16.8953 80.7073 19.0786 79.6156 21.0671C78.5239 23.0165 76.8474 24.5956 74.5861 25.8043C72.3247 27.0129 69.5175 27.6172 66.1644 27.6172H59.9652V42.3551H49.9645V1.29964H66.1644C69.4395 1.29964 72.2077 1.86498 74.4691 2.99566C76.7305 4.12634 78.4265 5.6859 79.5572 7.67434C80.6878 9.66279 81.2532 11.9436 81.2532 14.5169ZM65.4041 19.6635C67.3146 19.6635 68.7377 19.2151 69.6734 18.3184C70.6092 17.4216 71.077 16.1545 71.077 14.5169C71.077 12.8794 70.6092 11.6122 69.6734 10.7155C68.7377 9.81874 67.3146 9.37037 65.4041 9.37037H59.9652V19.6635H65.4041Z" fill="#0B3D91"/>
<path d="M110.066 42.0497C106.206 42.0497 102.658 41.1529 99.4221 39.3594C96.225 37.5659 93.6712 35.0706 91.7607 31.8735C89.8893 28.6375 88.9535 25.0115 88.9535 20.9956C88.9535 16.9797 89.8893 13.3732 91.7607 10.1761C93.6712 6.97904 96.225 4.48374 99.4221 2.69024C102.658 0.896748 106.206 0 110.066 0C113.926 0 117.455 0.896748 120.652 2.69024C123.888 4.48374 126.422 6.97904 128.254 10.1761C130.126 13.3732 131.062 16.9797 131.062 20.9956C131.062 25.0115 130.126 28.6375 128.254 31.8735C126.383 35.0706 123.849 37.5659 120.652 39.3594C117.455 41.1529 113.926 42.0497 110.066 42.0497ZM110.066 32.9263C113.341 32.9263 115.953 31.8346 117.903 29.6512C119.891 27.4678 120.886 24.5826 120.886 20.9956C120.886 17.3696 119.891 14.4844 117.903 12.34C115.953 10.1566 113.341 9.06495 110.066 9.06495C106.752 9.06495 104.101 10.1372 102.112 12.2815C100.163 14.4259 99.1882 17.3306 99.1882 20.9956C99.1882 24.6216 100.163 27.5263 102.112 29.7097C104.101 31.8541 106.752 32.9263 110.066 32.9263Z" fill="#0B3D91"/>
<path d="M153.721 1.29964C158.049 1.29964 161.831 2.1574 165.067 3.87291C168.303 5.58843 170.798 8.00575 172.553 11.1249C174.346 14.205 175.243 17.7725 175.243 21.8274C175.243 25.8432 174.346 29.4107 172.553 32.5299C170.798 35.649 168.283 38.0663 165.008 39.7818C161.772 41.4973 158.01 42.3551 153.721 42.3551H138.34V1.29964H153.721ZM153.077 33.6995C156.859 33.6995 159.803 32.6663 161.909 30.5999C164.014 28.5335 165.067 25.6093 165.067 21.8274C165.067 18.0454 164.014 15.1018 161.909 12.9964C159.803 10.8909 156.859 9.83824 153.077 9.83824H148.34V33.6995H153.077Z" fill="#0B3D91"/>
</svg>
